<?xml version="1.0" encoding="utf-8"?>
<!-- Generator: Adobe Illustrator 16.0.0, SVG Export Plug-In . SVG Version: 6.00 Build 0)  -->
<!DOCTYPE svg PUBLIC "-//W3C//DTD SVG 1.1//EN" "http://www.w3.org/Graphics/SVG/1.1/DTD/svg11.dtd">
<svg version="1.1" id="Layer_1" xmlns="http://www.w3.org/2000/svg" xmlns:xlink="http://www.w3.org/1999/xlink" x="0px" y="0px"
	 width="87.922px" height="100px" viewBox="6.039 0 87.922 100" enable-background="new 6.039 0 87.922 100" xml:space="preserve">
<path d="M42.023,97.029c0,1.643,3.571,2.971,7.977,2.971c4.406,0,7.977-1.328,7.977-2.971V63.468H42.023V97.029z"/>
<path d="M84.045,5.583H65.213V2.412C65.213,0.773,58.403,0,50.001,0c-8.402,0-15.214,0.772-15.214,2.411v3.173H15.956l-9.917,6.678
	v41.743l9.917,6.68h68.089l9.916-6.68V12.263L84.045,5.583z M75.705,28.169l-9.295,8.382l5.476,2.516L54.744,50.001l7.994-8.942
	l-5.476-2.516l9.295-8.382l-5.474-2.513l17.14-10.935l-7.993,8.94L75.705,28.169z"/>
</svg>
